<!DOCTYPE svg PUBLIC "-//W3C//DTD SVG 1.1//EN" "http://www.w3.org/Graphics/SVG/1.1/DTD/svg11.dtd">
<!-- Uploaded to: SVG Repo, www.svgrepo.com, Transformed by: SVG Repo Mixer Tools -->
<svg fill="#000000" height="256px" width="256px" version="1.1" xmlns="http://www.w3.org/2000/svg" viewBox="0 0 463.00 463.00" xmlns:xlink="http://www.w3.org/1999/xlink" enable-background="new 0 0 463 463" stroke="#000000" stroke-width="0.0046300000000000004" transform="rotate(0)">
<g id="SVGRepo_bgCarrier" stroke-width="0"/>
<g id="SVGRepo_tracerCarrier" stroke-linecap="round" stroke-linejoin="round" stroke="#CCCCCC" stroke-width="1.8519999999999999"/>
<g id="SVGRepo_iconCarrier"> <path d="m443.142,308.97c12.805-20.809 19.858-48.322 19.858-77.47s-7.053-56.661-19.858-77.47c-0.525-0.854-1.06-1.687-1.6-2.51 13.387-29.584 1.874-70.74-28.724-101.336-30.598-30.599-71.755-42.112-101.338-28.726-0.824-0.54-1.657-1.075-2.51-1.6-20.809-12.805-48.322-19.858-77.47-19.858s-56.661,7.053-77.47,19.858c-0.854,0.525-1.687,1.06-2.51,1.6-29.583-13.383-70.738-1.873-101.336,28.725-30.6,30.597-42.112,71.753-28.726,101.337-0.54,0.824-1.075,1.657-1.6,2.51-12.805,20.809-19.858,48.322-19.858,77.47s7.053,56.661 19.858,77.47c0.525,0.854 1.06,1.687 1.6,2.51-13.387,29.584-1.874,70.74 28.724,101.336 22.099,22.1 49.699,34.244 74.476,34.241 9.524,0 18.629-1.812 26.845-5.527 0.829,0.544 1.668,1.083 2.527,1.611 20.809,12.806 48.322,19.859 77.47,19.859s56.661-7.053 77.47-19.858c0.859-0.529 1.698-1.068 2.527-1.611 8.216,3.716 17.318,5.527 26.845,5.527 24.774,0 52.378-12.144 74.475-34.24 30.599-30.597 42.112-71.753 28.725-101.337 0.539-0.825 1.074-1.658 1.6-2.511zm4.858-77.47c0,26.41-6.262,51.131-17.633,69.608-8.074,13.12-17.942,21.771-28.5,25.209 1.654-4.928 2.926-9.901 3.749-14.875 3.745-22.619-1.714-42.598-15.37-56.255-0.6-0.6-1.244-1.202-1.915-1.803 1.727-6.902 2.669-14.252 2.669-21.884 0-7.634-0.943-14.987-2.671-21.89 0.669-0.599 1.316-1.198 1.917-1.799 13.656-13.656 19.115-33.635 15.37-56.254-0.824-4.975-2.095-9.948-3.749-14.875 10.558,3.439 20.426,12.089 28.5,25.209 11.371,18.478 17.633,43.199 17.633,69.609zm-178.805,151.131c20.275-9.807 33.805-27.262 33.805-47.131 0-8.452-3.068-19.934-8.706-32.844 1.688-0.99 3.289-2.181 4.736-3.627 1.445-1.445 2.635-3.044 3.624-4.729 10.094,4.42 22.526,8.701 32.847,8.701 19.869,0 37.324-13.529 47.131-33.804 17.779,22.519 9.155,62.942-20.67,92.765-29.825,29.824-70.251,38.449-92.767,20.669zm-168.156-20.67c-29.825-29.824-38.449-70.249-20.67-92.766 9.807,20.275 27.262,33.805 47.131,33.805 8.449,0 19.935-3.068 32.844-8.706 0.99,1.688 2.181,3.289 3.627,4.735 1.446,1.446 3.047,2.637 4.734,3.626-5.637,12.91-8.705,24.397-8.705,32.845 0,19.869 13.529,37.324 33.804,47.131-22.519,17.778-62.942,9.155-92.765-20.67zm0-260.922c29.823-29.826 70.247-38.451 92.766-20.67-20.275,9.807-33.805,27.262-33.805,47.131 0,8.457 3.067,19.933 8.707,32.845-1.688,0.99-3.289,2.181-4.736,3.627-1.447,1.447-2.638,3.048-3.628,4.737-9.568-4.173-22.37-8.709-32.843-8.709-19.869,0-37.324,13.529-47.131,33.804-17.779-22.519-9.154-62.942 20.67-92.765zm260.922,0c29.825,29.824 38.449,70.249 20.67,92.766-9.807-20.275-27.262-33.805-47.131-33.805-10.319,0-22.751,4.28-32.847,8.701-0.989-1.686-2.179-3.285-3.624-4.73-1.444-1.444-3.043-2.634-4.728-3.623 4.435-10.129 8.7-22.54 8.7-32.848 0-19.869-13.529-37.324-33.805-47.131 22.518-17.78 62.94-9.156 92.765,20.67zm-85.565,175.367c0.002-0.002 0.004-0.003 0.005-0.005 0.001-0.001 0.003-0.003 0.004-0.005 3.314-3.308 8.704-3.308 12.016,0.004 3.314,3.314 3.314,8.708 0.001,12.021-3.313,3.313-8.705,3.316-12.021,0-3.312-3.312-3.313-8.701-0.005-12.015zm29.259,2.798c-0.671-4.907-2.863-9.645-6.627-13.41-7.306-7.304-18.259-8.764-27.046-4.419l-7.766-7.766c2.939-4.335 5.032-9.284 6.06-14.609h10.958c3.138,9.29 11.93,16 22.266,16 12.958,0 23.5-10.542 23.5-23.5s-10.542-23.5-23.5-23.5c-10.336,0-19.128,6.71-22.266,16h-10.958c-1.028-5.325-3.121-10.274-6.06-14.609l7.765-7.765c3.277,1.621 6.85,2.451 10.429,2.451 6.019,0 12.036-2.291 16.617-6.871l.001-.001c3.764-3.764 5.955-8.502 6.626-13.41 12.136-5.605 22.92-8.795 29.846-8.795 22.332,0 40.5,25.346 40.5,56.5s-18.168,56.5-40.5,56.5c-6.927,0-17.712-3.19-29.845-8.796zm-74.155,15.796c4.687,0 8.5,3.813 8.5,8.5s-3.813,8.5-8.5,8.5-8.5-3.813-8.5-8.5 3.813-8.5 8.5-8.5zm0-39c-13.51,0-24.5-10.99-24.5-24.5s10.99-24.5 24.5-24.5 24.5,10.99 24.5,24.5-10.99,24.5-24.5,24.5zm-44.9,32.422c-3.313,3.314-8.708,3.313-12.021,0.001-3.313-3.314-3.313-8.707 0-12.021 3.313-3.313 8.703-3.313 12.016-0.005 0.002,0.002 0.003,0.004 0.005,0.005 0.001,0.001 0.003,0.003 0.005,0.004 3.308,3.314 3.306,8.704-0.005,12.016zm4.418-27.047c-8.787-4.345-19.74-2.884-27.046,4.419l-.001,.001c-3.763,3.763-5.954,8.5-6.626,13.406-12.143,5.612-22.892,8.799-29.845,8.799-22.332,0-40.5-25.346-40.5-56.5s18.168-56.5 40.5-56.5c6.969,0 17.697,3.185 29.845,8.801 0.672,4.906 2.863,9.642 6.626,13.405 4.581,4.58 10.599,6.871 16.616,6.871 3.58,0 7.153-0.83 10.43-2.451l7.765,7.765c-2.939,4.335-5.032,9.284-6.06,14.609h-10.958c-3.138-9.29-11.93-16-22.266-16-12.958,0-23.5,10.542-23.5,23.5s10.542,23.5 23.5,23.5c10.336,0 19.128-6.71 22.266-16h10.958c1.028,5.325 3.121,10.274 6.06,14.609l-7.764,7.766zm-4.414-74.781c-0.002,0.002-0.004,0.003-0.005,0.005-0.001,0.001-0.003,0.003-0.004,0.005-3.314,3.308-8.704,3.308-12.016-0.004-3.314-3.314-3.314-8.708-0.001-12.021 1.657-1.657 3.834-2.485 6.012-2.485 2.176,0 4.353,0.828 6.01,2.485 3.311,3.312 3.312,8.701 0.004,12.015zm-18.604,44.906c0,4.687-3.813,8.5-8.5,8.5s-8.5-3.813-8.5-8.5 3.813-8.5 8.5-8.5 8.5,3.813 8.5,8.5zm63.5-63.5c-4.687,0-8.5-3.813-8.5-8.5s3.813-8.5 8.5-8.5 8.5,3.813 8.5,8.5-3.813,8.5-8.5,8.5zm63.5,63.5c0-4.687 3.813-8.5 8.5-8.5s8.5,3.813 8.5,8.5-3.813,8.5-8.5,8.5-8.5-3.813-8.5-8.5zm-18.6-56.922c1.657-1.657 3.834-2.485 6.012-2.485 2.177,0 4.354,0.828 6.01,2.484 3.313,3.314 3.313,8.707 0,12.021-3.313,3.313-8.703,3.313-12.016,0.005-0.002-0.002-0.003-0.004-0.005-0.005-0.001-0.001-0.003-0.003-0.005-0.004-3.309-3.314-3.307-8.704 0.004-12.016zm11.6-47.078c0,6.933-3.187,17.708-8.796,29.845-4.907,0.671-9.645,2.863-13.41,6.626-7.305,7.306-8.766,18.259-4.42,27.047l-7.765,7.765c-4.335-2.939-9.284-5.032-14.609-6.06v-10.958c9.29-3.138 16-11.93 16-22.266 0-12.958-10.542-23.5-23.5-23.5s-23.5,10.543-23.5,23.501c0,10.336 6.71,19.128 16,22.266v10.958c-5.325,1.028-10.274,3.121-14.609,6.06l-7.765-7.765c4.346-8.787 2.886-19.741-4.42-27.047l-.001-.001c-3.763-3.763-8.499-5.954-13.405-6.625-5.614-12.148-8.8-22.881-8.8-29.846 0-22.332 25.346-40.5 56.5-40.5s56.5,18.168 56.5,40.5zm-113,208c0-6.953 3.187-17.702 8.8-29.845 4.906-0.672 9.642-2.863 13.406-6.627 7.305-7.306 8.766-18.259 4.42-27.047l7.765-7.765c4.335,2.939 9.284,5.032 14.609,6.06v10.958c-9.29,3.138-16,11.93-16,22.266 0,12.958 10.542,23.5 23.5,23.5s23.5-10.542 23.5-23.5c0-10.336-6.71-19.128-16-22.266v-10.958c5.325-1.028 10.274-3.121 14.609-6.06l7.765,7.765c-4.346,8.787-2.886,19.741 4.42,27.047l.001,.001c3.763,3.762 8.499,5.954 13.405,6.626 5.614,12.146 8.8,22.887 8.8,29.845 0,22.332-25.346,40.5-56.5,40.5s-56.5-18.168-56.5-40.5zm227.21-274.71c23.161,23.16 34.007,53.803 28.279,76.93-10.562-10.665-22.815-16.746-35.784-17.607-5.637-10.576-13.104-20.648-22.136-29.681-9.033-9.032-19.105-16.499-29.681-22.136-0.861-12.97-6.942-25.222-17.607-35.785 23.123-5.729 53.769,5.118 76.929,28.279zm-170.71-45.79c26.41,0 51.131,6.262 69.608,17.633 13.12,8.074 21.771,17.942 25.209,28.5-4.928-1.654-9.901-2.926-14.875-3.749-22.62-3.744-42.598,1.714-56.255,15.37-0.6,0.6-1.2,1.246-1.8,1.916-6.902-1.727-14.254-2.67-21.887-2.67-7.634,0-14.987,0.943-21.89,2.671-0.599-0.669-1.198-1.316-1.799-1.917-13.656-13.656-33.628-19.115-56.254-15.37-4.975,0.824-9.948,2.095-14.875,3.749 3.439-10.558 12.089-20.426 25.209-28.5 18.478-11.371 43.199-17.633 69.609-17.633zm-170.71,45.79c23.16-23.161 53.804-34.009 76.93-28.28-10.665,10.563-16.746,22.815-17.607,35.785-10.576,5.637-20.648,13.104-29.681,22.136-9.032,9.033-16.499,19.105-22.136,29.681-12.969,0.861-25.222,6.942-35.784,17.607-5.729-23.125 5.117-53.769 28.278-76.929zm-45.79,170.71c0-26.41 6.262-51.131 17.633-69.608 8.074-13.12 17.942-21.771 28.5-25.209-1.654,4.927-2.926,9.901-3.749,14.875-3.745,22.619 1.714,42.598 15.37,56.255 0.6,0.6 1.247,1.2 1.917,1.799-1.728,6.903-2.671,14.255-2.671,21.888 0,7.634 0.943,14.987 2.671,21.89-0.669,0.599-1.316,1.198-1.917,1.799-13.656,13.656-19.115,33.635-15.37,56.254 0.824,4.975 2.095,9.948 3.749,14.875-10.558-3.439-20.426-12.089-28.5-25.209-11.371-18.478-17.633-43.199-17.633-69.609zm45.79,170.71c-23.161-23.16-34.007-53.803-28.279-76.93 10.562,10.665 22.815,16.746 35.784,17.607 5.637,10.576 13.104,20.648 22.136,29.681 9.033,9.032 19.105,16.499 29.681,22.136 0.861,12.969 6.942,25.222 17.606,35.784-23.124,5.728-53.769-5.118-76.928-28.278zm170.71,45.79c-26.41,0-51.131-6.262-69.608-17.633-13.12-8.074-21.771-17.942-25.209-28.5 4.927,1.654 9.901,2.926 14.875,3.749 4.655,0.771 9.195,1.151 13.595,1.151 16.977-0.001 31.813-5.677 42.662-16.523 0.599-0.6 1.199-1.246 1.798-1.915 6.903,1.728 14.255,2.67 21.888,2.67 7.634,0 14.987-0.943 21.89-2.671 0.599,0.669 1.198,1.316 1.799,1.917 10.847,10.847 25.681,16.521 42.659,16.521 4.397,0 8.94-0.381 13.595-1.151 4.975-0.824 9.948-2.095 14.875-3.749-3.439,10.558-12.089,20.426-25.209,28.5-18.479,11.372-43.2,17.634-69.61,17.634zm170.71-45.79c-23.16,23.16-53.804,34.006-76.929,28.279 10.665-10.562 16.745-22.815 17.606-35.784 10.576-5.637 20.648-13.104 29.681-22.136 9.032-9.033 16.499-19.105 22.136-29.681 12.969-0.861 25.222-6.942 35.784-17.607 5.729,23.125-5.117,53.769-28.278,76.929z"/> </g>
</svg>